<svg width="64" height="64" viewBox="0 0 64 64" fill="none" xmlns="http://www.w3.org/2000/svg">
    <g clip-path="url(#clip0_274_4378)">
        <!-- Backgroud -->
        <rect width="64" height="64" rx="32" fill="#6F6FFB" />

        <!-- Heads -->
        <g clip-path="url(#clip1_274_4378)">
            <circle cx="18" cy="37" r="5" fill="#F0BD70" />
            <path d="M18 41H35V65.8705C35 65.8705 31.3571 68 26.5 68C21.6429 68 18 64.5226 18 64.5226V41Z"
                fill="#F0BD70" />
            <path
                d="M35 53.8678C35 59.5217 31.4998 59.9996 28.3831 58.9864C25.2663 57.9733 18.9998 49.1535 18.9998 43.4996C18.9998 37.8457 19.7839 38 24.4129 38C37.5 38.5 35 48.2139 35 53.8678Z"
                fill="#E9B05B" />
            <path
                d="M45.8858 36.0992C45.8858 45.0216 41.9984 55 35.4984 56.5C25.9984 55.5 17.4284 45.0216 17.4284 36.0992C15 25.5 15.5 13 32 13C48.5 13 45.8858 27.1767 45.8858 36.0992Z"
                fill="#FFCB7E" />
            <rect x="36" y="41" width="3" height="2" rx="1" fill="#F0BD70" />
        </g>

        <!-- Body -->
        <g clip-path="url(#clip2_274_4378)">
            <g clip-path="url(#clip3_274_4378)">
                <rect x="7" y="60" width="40" height="23" rx="9" fill="#E05A33" />
            </g>
        </g>

        <!-- Hair -->
        <path fill-rule="evenodd" clip-rule="evenodd"
            d="M28.9649 26.2011C34.576 28.064 42.3537 30.6462 50.5 22.5C54.5 18.5 36.5 1.5 22 11C10.6667 12.679 11.3144 19.4698 11.8143 24.7106C11.9099 25.7126 12 26.6579 12 27.5C12 28.0329 12.0697 28.4317 12.2003 28.7182C12.0396 29.9513 12 31.1852 12 32C12 34.2091 13.7909 36 16 36C18.2091 36 20 34.2091 20 32C22.2091 32 24 30.2091 24 28C24 27.654 23.9561 27.3182 23.8735 26.998C23.9155 26.9993 23.9577 27 24 27C25.2237 27 26.3191 26.4505 27.0528 25.5847C27.6574 25.767 28.2957 25.979 28.9649 26.2011Z"
            fill="#1B0B47" />

        <!-- Mouth -->
        <g clip-path="url(#clip4_274_4378)">
            <path
                d="M28.9286 46C28.9286 45.4477 29.3763 45 29.9286 45H39.0714C39.6237 45 40.0714 45.4477 40.0714 46C40.0714 48.7614 37.8329 51 35.0714 51H33.9286C31.1672 51 28.9286 48.7614 28.9286 46Z"
                fill="#66253C" />
            <path fill-rule="evenodd" clip-rule="evenodd"
                d="M36.7547 50.7096C36.2287 50.8976 35.662 51 35.0714 51H33.9286C31.2341 51 29.0374 48.8686 28.9325 46.1999C29.6965 45.914 30.8305 45.9469 31.9499 45.9794C32.3056 45.9897 32.6597 46 33 46C35.2092 46 37 47.567 37 49.5C37 49.9252 36.9134 50.3326 36.7547 50.7096Z"
                fill="#B03E67" />
            <path d="M30 45H40V46C40 46.5523 39.5523 47 39 47H31C30.4477 47 30 46.5523 30 46V45Z" fill="white" />
            <path
                d="M32 45.3C32 45.1343 32.1343 45 32.3 45H33.7C33.8657 45 34 45.1343 34 45.3V47.7C34 47.8657 33.8657 48 33.7 48H32.3C32.1343 48 32 47.8657 32 47.7V45.3Z"
                fill="#B03E67" />
        </g>


        <!-- Eyes -->
        <g clip-path="url(#clip5_274_4378)">
            <rect x="24" y="38" width="5" height="3" rx="1.5" fill="#FF859B" />
            <rect x="43" y="38" width="4" height="3" rx="1.5" fill="#FF859B" />
            <path
                d="M43 36.5C43 37.3284 42.3284 38 41.5 38V38C40.6716 38 40 37.3284 40 36.5L40 35.2727C40 35.1221 40.1221 35 40.2727 35L42.7273 35C42.8779 35 43 35.1221 43 35.2727L43 36.5Z"
                fill="#1B0B47" />
            <path
                d="M33 36.5C33 37.3284 32.3284 38 31.5 38V38C30.6716 38 30 37.3284 30 36.5L30 35.2727C30 35.1221 30.1221 35 30.2727 35L32.7273 35C32.8779 35 33 35.1221 33 35.2727L33 36.5Z"
                fill="#1B0B47" />
            <line x1="29.5" y1="35.5" x2="33.5" y2="35.5" stroke="#1B0B47" stroke-linecap="round" />
            <line x1="39.5" y1="35.5" x2="43.5" y2="35.5" stroke="#1B0B47" stroke-linecap="round" />
        </g>

        <!-- Mustaches -->
        <g clip-path="url(#clip6_274_4378)">
            <g clip-path="url(#clip7_274_4378)">
                <path d="M28 46C28 44.3431 29.3431 43 31 43H40C41.6569 43 43 44.3431 43 46H28Z" fill="#1B0B47" />
            </g>
        </g>

    </g>
    <defs>
        <clipPath id="clip0_274_4378">
            <rect width="64" height="64" rx="32" fill="white" />
        </clipPath>
    </defs>
    <defs>
        <clipPath id="clip1_274_4378">
            <rect width="64" height="64" fill="white" />
        </clipPath>
        <clipPath id="clip2_274_4378">
            <rect width="64" height="64" fill="white" />
        </clipPath>
        <clipPath id="clip3_274_4378">
            <rect width="64" height="64" fill="white" />
        </clipPath>
        <clipPath id="clip4_274_4378">
            <rect width="64" height="64" fill="white" transform="translate(1)" />
        </clipPath>
        <clipPath id="clip5_274_4378">
            <rect y="-1" width="64" height="64" rx="32" fill="white" />
        </clipPath>
        <clipPath id="clip6_274_4378">
            <rect width="64" height="64" rx="32" fill="white" />
        </clipPath>
        <clipPath id="clip7_274_4378">
            <rect width="64" height="64" fill="white" />
        </clipPath>
    </defs>
</svg>